# xmcd
#
# Track frame offsets: 
#        150
#        30865
#        42620
#        68366
#        86773
#        97039
#        116928
#        129134
#        153588
#        173950
#        184431
#        202051
#        223026
#
# Disc length: 3137 seconds
#
# Revision: 1
# Processed by: cddbd v1.5.2PL0 Copyright (c) Steve Scherf et al.
# Submitted via: ExactAudioCopy v1.0b3
#
DISCID=bb0c3f0d
DTITLE=Caetano Veloso - Zii e Zie
DYEAR=2008
DGENRE=Brasil Vocal
TTITLE0=Perdeu
TTITLE1=Sem Cais
TTITLE2=Por Quem?
TTITLE3=Lobão Tem Razão
TTITLE4=A Cor Amarela
TTITLE5=A Base de Guantánamo
TTITLE6=Falso Leblon
TTITLE7=Incompatilidade de Gênios
TTITLE8=Tarado ni Você
TTITLE9=Menina da Ria
TTITLE10=Ingenuidade
TTITLE11=Lapa
TTITLE12=Diferententemente
EXTD=
EXTT0=
EXTT1=
EXTT2=
EXTT3=
EXTT4=
EXTT5=
EXTT6=
EXTT7=
EXTT8=
EXTT9=
EXTT10=
EXTT11=
EXTT12=
PLAYORDER=
